# xmcd
#
# Track frame offsets:
#	150
#	16300
#	33462
#	47825
#
# Disc length: 797 seconds
#
# Revision: 0
# Processed by: cddbd v1.4PL0 Copyright (c) Steve Scherf et al.
# Submitted via: audiograbber 1.80
#
DISCID=2a031b04
DTITLE=Roman Farland and Snake Eyes - DU RUFST NICHT AN
DYEAR=1900
DGENRE=
TTITLE0=DU RUFST NICHT AN
TTITLE1=BEI DIR BIN ICH IM HIMMEL
TTITLE2=DA RIECH ICH DEN BRATEN
TTITLE3=HOBO   ( INSTRUMENTAL)
EXTD=
EXTT0=
EXTT1=
EXTT2=
EXTT3=
PLAYORDER=
